<?xml version="1.0" encoding="iso-8859-1"?>
<!-- Generator: Adobe Illustrator 19.0.0, SVG Export Plug-In . SVG Version: 6.00 Build 0)  -->
<svg version="1.1" id="Layer_1" xmlns="http://www.w3.org/2000/svg" xmlns:xlink="http://www.w3.org/1999/xlink" x="0px" y="0px"
	 viewBox="0 0 512 512" style="enable-background:new 0 0 512 512;" xml:space="preserve">
<path style="fill:#FFB085;" d="M256,15.884c-132.612,0-240.117,107.504-240.117,240.117s107.504,240.115,240.115,240.115
	s240.115-107.504,240.115-240.115S388.613,15.884,256,15.884z M256,354c-54.124,0-98-43.876-98-98s43.876-98,98-98s98,43.876,98,98
	S310.124,354,256,354z"/>
<path style="fill:#F1414F;" d="M256.718,16.827C125.875,16.422,19.257,121.133,16.795,251.479
	c14.636,7.07,29.473,14.044,58.782,14.135c44.086,0.137,55.539-15.497,82.755-23.512c7.146-47.527,48.148-83.968,97.668-83.968
	c54.553,0,98.776,44.224,98.776,98.776c0,1.067-0.048,2.122-0.081,3.18c23.733-8.328,36.414-21.997,77.647-21.87
	c32.019,0.1,46.768,8.412,62.85,16.091C494.255,123.333,388.011,17.236,256.718,16.827z"/>
<path d="M256,0.001c-141.159,0-256,114.841-256,256s114.841,255.998,256,255.998s256-114.841,256-255.998S397.159,0.001,256,0.001z
	 M200.375,195.662c0.41-0.372,0.816-0.745,1.234-1.107c0.235-0.208,0.477-0.413,0.713-0.618
	c14.609-12.441,33.469-19.919,53.677-19.919c15.631,0,30.261,4.354,42.753,11.903c23.59,14.444,39.363,40.453,39.363,70.08
	c0,45.278-36.836,82.116-82.116,82.116s-82.116-36.838-82.116-82.116C173.884,232.165,184.1,210.676,200.375,195.662z
	 M368.857,236.596c-5.591-31.142-23.814-57.942-49.14-74.94c-0.059-0.04-0.116-0.078-0.173-0.118
	c-1.158-0.775-2.332-1.526-3.52-2.259c-0.542-0.337-1.082-0.677-1.63-1.005c-0.554-0.329-1.117-0.645-1.676-0.966
	c-16.714-9.644-36.074-15.192-56.719-15.192c-19.441,0-37.756,4.906-53.784,13.533c-0.097,0.051-0.195,0.098-0.292,0.149
	c-0.28,0.151-0.551,0.313-0.828,0.467c-7.181,3.917-13.976,8.602-20.234,14.036c-18.104,15.72-30.782,36.654-36.339,59.723
	c-5.921,2.267-11.148,4.752-16.258,7.181c-14.131,6.719-26.347,12.526-52.099,12.526c-0.178,0-0.361,0-0.538,0
	c-19.984-0.062-32.021-3.628-42.524-8.175C40.645,125.351,138.485,32.709,255.975,32.709c0.229,0,0.464,0,0.694,0.002
	c113.413,0.351,207.766,86.473,221.046,196.622c-11.476-3.961-25.637-6.933-45.321-6.995c-0.207,0-0.408,0-0.613,0
	C400.847,222.336,383.59,229.646,368.857,236.596z M256,480.233c-117.128,0-213.552-90.274-223.39-204.896
	c10.952,3.529,24.452,6.104,42.918,6.161c0.208,0,0.41,0,0.616,0c32.932,0,50.369-8.286,65.758-15.602
	c0.218-0.103,0.43-0.205,0.648-0.307c4.889,58.322,53.887,104.296,113.449,104.296c57.494,0,105.146-42.836,112.785-98.265
	c3.818-1.636,7.387-3.329,10.88-4.989c14.13-6.717,26.342-12.526,52.092-12.526c0.176,0,0.357,0,0.535,0
	c23.144,0.071,35.397,4.73,47.756,10.559C475.48,384.304,376.74,480.233,256,480.233z"/>
<path d="M285.711,96.657c-0.017,0-0.033,0-0.051,0l-40.201-0.124c-8.771-0.027-15.859-7.16-15.834-15.932
	s7.173-15.885,15.932-15.834l40.201,0.124c8.771,0.027,15.859,7.16,15.834,15.932C301.566,89.576,294.46,96.657,285.711,96.657z"/>
<path d="M412.753,181.281c-4.246,0-8.48-1.692-11.609-5.038l-21.941-23.482c-5.99-6.41-5.648-16.46,0.761-22.449
	c6.409-5.986,16.457-5.648,22.449,0.761l21.941,23.482c5.99,6.41,5.648,16.46-0.761,22.449
	C420.533,179.864,416.638,181.281,412.753,181.281z"/>
<path d="M115.004,197.589c-2.84,0-5.713-0.761-8.309-2.359c-7.47-4.598-9.8-14.381-5.202-21.852l21.164-34.392
	c4.598-7.47,14.379-9.8,21.852-5.202c7.47,4.598,9.8,14.381,5.202,21.852l-21.164,34.392
	C125.548,194.901,120.338,197.589,115.004,197.589z"/>
<path d="M256,440.348c-37.459,0-73.522-11.176-104.288-32.318c-7.23-4.968-9.061-14.857-4.093-22.086
	c4.967-7.23,14.857-9.063,22.086-4.095c25.447,17.489,55.29,26.733,86.295,26.733c55.777,0,107.09-30.424,133.915-79.4
	c4.212-7.694,13.869-10.516,21.56-6.301c7.694,4.214,10.515,13.866,6.301,21.56C385.374,403.599,323.386,440.348,256,440.348z"/>
<path d="M122.458,374.881c-4.706,0-9.363-2.081-12.497-6.067c-4.813-6.121-4.622-14.752,0.453-20.521
	c5.076-5.775,13.621-7.06,20.313-3.067c7.53,4.498,9.989,14.25,5.491,21.781c-0.742,1.24-1.625,2.346-2.619,3.302
	c-0.418,0.411-0.862,0.804-1.334,1.174C129.353,373.772,125.894,374.881,122.458,374.881z M134.957,349.21
	c0.002,0.002,0.003,0.003,0.005,0.006C134.96,349.213,134.958,349.212,134.957,349.21z M134.933,349.18
	c0.005,0.006,0.01,0.011,0.014,0.017C134.943,349.193,134.938,349.186,134.933,349.18z"/>
<g>
</g>
<g>
</g>
<g>
</g>
<g>
</g>
<g>
</g>
<g>
</g>
<g>
</g>
<g>
</g>
<g>
</g>
<g>
</g>
<g>
</g>
<g>
</g>
<g>
</g>
<g>
</g>
<g>
</g>
</svg>
